<svg width="512" height="512" viewBox="0 0 512 512" fill="none" xmlns="http://www.w3.org/2000/svg">
  <rect width="512" height="512" rx="128" fill="#ec4899"/>
  <path d="M256 128C256 128 320 224 320 288C320 341.019 291.196 384 256 384C220.804 384 192 341.019 192 288C192 224 256 128 256 128Z" fill="white"/>
  <path d="M256 180L275 220H315L285 245L295 285L256 260L217 285L227 245L197 220H237L256 180Z" fill="#fde68a" opacity="0.8"/>
  <circle cx="160" cy="160" r="20" fill="white" opacity="0.4"/>
  <circle cx="380" cy="120" r="15" fill="white" opacity="0.3"/>
  <circle cx="420" cy="400" r="25" fill="white" opacity="0.2"/>
</svg>
